<?xml version="1.0" encoding="UTF-8"?>
<svg enable-background="new 0 0 357.588 347.967" viewBox="0 0 357.588 347.967" xmlns="http://www.w3.org/2000/svg">
 <path d="m0.732 173.92c0 96.05 79.885 173.92 178.43 173.92s178.43-77.865 178.43-173.92-79.883-173.92-178.43-173.92-178.43 77.865-178.43 173.92z" fill="#f0ebe6" fill-rule="evenodd"/>
 <path d="m194.52 4.244c-4.173 3.637 16.975 18.187 16.909 26.471-0.472 7.88-12.868 13.539-17.987 21.689-5.116 8.083-0.604 15.627-12.19 27.01-11.989 11.248-39.808 24.045-57.725 40.211-17.917 16.099-33.207 42.705-48.698 55.636-15.762 12.597-35.43 11.047-44.456 20.073-9.093 8.891-10.979 19.332-9.564 33.409 1.077 13.943 4.513 34.554 17.311 49.912 12.797 15.223 29.569 38.797 59.408 40.549 29.907 1.144 83.321-5.188 118.68-32.264 35.161-27.55 73.824-95.647 91.065-129.73 16.839-34.15 12.125-54.491 10.039-73.015-2.563-18.389-14.146-26.875-23.308-37.113-9.158-10.441-21.419-18.659-31.052-24.922-9.698-6.333-15.56-9.902-26.943-12.799-11.719-3.164-37.315-8.687-41.491-5.117z" fill="#e1ddd8" fill-rule="evenodd"/>
 <path d="m258.57 23.306c-3.569 2.964 5.997 16.637 4.243 28.021-2.222 11.383-9.699 25.394-15.896 39.202-6.129 13.405-8.35 30.715-20.676 41.29-12.663 10.305-44.254 8.891-54.493 20.678-10.305 11.519 7.746 39.876-7.409 48.699-15.693 8.621-64.729-3.906-84.196 3.165-19.466 7.005-25.393 25.865-31.254 38.663-5.928 12.596-7.409 25.192-3.166 37.048 4.379 11.72 16.166 24.517 28.357 33.207 11.989 8.352 30.242 13.537 43.109 17.646 12.595 3.975 15.895 8.149 32.802 6.331 16.975-1.886 47.957-3.367 67.76-17.984 19.266-15.356 30.919-49.912 48.229-71.466 17.312-21.621 44.32-31.859 55.031-56.175 10.101-24.72 8.42-67.625 7.407-89.449-1.078-21.824-5.456-28.896-12.863-40.212-7.747-11.451-21.557-21.42-31.256-27.819-9.697-6.804-22.158-13.54-25.729-10.845z" fill="#d8d4cf" fill-rule="evenodd"/>
 <path d="m344.59 110.26c-2.964-9.093-3.64-13.742-8.556-20.14-5.32-6.533-16.773-20.544-21.889-17.581-5.119 3.032-3.976 17.177-8.489 35.969-4.85 18.86-10.776 59.005-19.602 75.709-9.228 16.232-23.71 12.73-33.339 22.228-9.633 9.362-9.432 25.191-23.308 33.949-14.146 8.487-42.569 6.062-59.813 17.446-17.446 11.383-28.356 40.277-43.378 50.314-15.357 9.699-48.564 2.089-46.611 8.083 2.29 5.726 35.43 22.16 59.409 26.942 23.979 4.647 56.042 7.679 82.916 1.281 26.607-6.67 54.425-21.285 75.642-40.213 21.017-19.331 39.876-45.938 49.574-73.084 9.162-27.144 6.87-67.827 6.399-88.035-0.471-20.273-6.127-24.045-8.955-32.868z" fill="#d0ccc8" fill-rule="evenodd"/>
 <path d="m113.825,333.35c.876,1.818 40.684,10.372 61.497,11.115 20.745.336 41.896-.877 62.441-8.556 20.34-7.88 46.406-28.021 58.938-37.854 12.256-9.902 24.11-24.316 14.817-21.15-9.834,3.167-47.89,30.512-71.604,40.213-23.708,9.43-48.091,14.212-69.24,16.974-21.218,2.626-57.658-2.561-56.849-.742z" fill="#b1a59c" fill-rule="evenodd"/>
 <path d="m91.866,92.212c-.471-.27-2.492-.404-3.974-.673-1.684-.606-3.772-1.347-5.456-1.954-1.886-.673-3.57-1.548-5.322-1.616-1.818-.27-3.771.471-5.32.134-1.684-.472-2.963-2.156-4.647-2.425-1.953-.606-4.513,0-6.399-.27-1.818-.404-3.502-1.011-4.782-1.011-1.348-.134-1.953.809-3.368,1.011-1.684,0-4.512-.741-6.129-.404-1.684.134-2.694.54-4.108,1.212-1.684.404-4.917.943-5.321,1.348-.404.336 1.146.134 2.56.134 1.28-.472 2.829-1.347 4.647-1.616 1.28-.202 2.83-.068 4.647.134 1.954-.067 4.918-.067 6.534,0 1.145-.202.337-.471 1.212-.539 .673-.068 1.819.203 3.435.539 1.482.068 4.042,0 6.129.54 2.021.336 3.975,2.155 5.861,2.56 1.616.268 2.828-.607 4.647-.27 1.617.134 3.906,1.481 5.59,1.953 1.482.404 2.896.472 4.243.943 1.212.337 2.426.875 3.369,1.078 .807-.203 2.154-.472 1.952-.808z" fill="#a52914" fill-rule="evenodd"/>
 <path d="m28.012,94.502c-.067-.135-2.627,2.02-3.772,3.569-1.212.943-2.021,2.156-3.165,3.638-1.416,1.548-3.234,3.839-4.379,5.321-1.078,1.348-2.761,3.099-2.156,2.896 .27-.472 3.032-3.234 4.647-4.917 1.55-1.752 2.762-3.435 4.379-5.052 1.347-1.885 4.311-5.185 4.446-5.455z" fill="#a52914" fill-rule="evenodd"/>
 <path d="m10.162,131.616c.404-.606 0-6.197-.404-7.679-.269-1.751-1.145-2.29-1.347-2.156-.404.135-.876,1.818-1.146,2.963-.472.876-2.223,1.146-1.616,2.358 .472,1.281 3.705,4.783 4.513,4.514z" fill="#e2391c" fill-rule="evenodd"/>
 <path d="m7.266,140.372c-.067-1.347-.943-4.244-1.347-5.052-.741-1.01-1.415-1.617-1.751-.808-.202.606-.337,2.761.134,4.377 .203,1.28 1.011,3.638 1.618,3.975 .403-.067 1.279-1.077 1.346-2.492z" fill="#e2391c" fill-rule="evenodd"/>
 <path d="m4.167,154.854c.134-1.28 0-2.963-.134-3.975-.405-1.212-1.617-2.761-2.089-2.56-.606.136-1.212,1.819-.808,3.503 .405,1.617 2.021,5.523 2.762,6.264 .269.27.269-2.02.269-3.232z" fill="#cf341a" fill-rule="evenodd"/>
 <path d="m2.82,168.123c.203-.605-.404-4.31-.741-5.388-.673-1.077-1.212-1.414-1.616-1.01-.404.27-.741,2.358-.27,3.435 .203.943 2.291,3.232 2.627,2.963z" fill="#cf341a" fill-rule="evenodd"/>
 <path d="m2.214,175.802c-.539-.067-1.683,3.435-1.886,4.783-.134,1.009.27,2.087.944,2.154 .404,0 1.28-.672 1.548-1.75 .136-1.281-.336-5.187-.606-5.187z" fill="#cf341a" fill-rule="evenodd"/>
 <path d="m2.956,192.641c-.337.136-1.886,2.357-1.819,3.773-.202,1.144.673,3.165 1.078,3.165 .202-.336.809-2.425 1.011-3.704 .2-1.213-.136-3.503-.27-3.234z" fill="#cf341a" fill-rule="evenodd"/>
 <path d="m85.872,92.481c-1.684,2.626-7.342,10.373-9.7,14.145-2.424,3.502-3.367,6.802-4.108,7.274-.876.337-.876-3.907-1.078-5.187-.472-1.481-2.087-1.684-.943-3.704 .943-2.29 4.917-7.208 7.477-9.564 2.492-2.762 5.792-4.109 7.341-4.783 1.212-.74 2.424-.74 1.011,1.819z" fill="#f13d2f" fill-rule="evenodd"/>
 <path d="m59.265,110.062c1.078-1.414 4.513-8.352 6.4-11.451 1.751-2.963 3.435-4.445 4.782-5.994 1.212-1.684 4.176-4.177 3.435-4.109-.943-.202-5.658,2.021-7.947,3.839-2.358,1.819-4.917,4.783-6.13,7.073-1.415,2.021-1.818,3.704-1.752,5.59-.27,1.616-.135,6.062 1.212,5.052z" fill="#f13d2f" fill-rule="evenodd"/>
 <path d="m49.97,107.3c1.011-1.751 3.099-8.554 5.187-12.125 1.819-3.57 5.726-7.814 6.534-9.093 .539-1.549-1.01-.472-2.56.674-1.885,1.078-4.849,3.502-6.803,5.725-1.818,2.021-3.435,4.715-3.839,6.803-.673,1.819-.067,3.638.27,4.917 .133,1.213-.069,4.58 1.211,3.099z" fill="#f13d2f" fill-rule="evenodd"/>
 <path d="m41.146,106.357c1.077-.674 3.771-7.949 5.456-10.643 1.751-2.897 2.964-5.254 4.176-6.804 .943-1.751 1.415-2.829 1.145-2.964-.673-.202-2.357.337-3.974,1.887-1.684,1.684-4.244,4.647-5.59,7.072-1.684,1.819-2.56,3.031-2.896,4.917-.203,1.954.268,7.074 1.683,6.535z" fill="#f13d2f" fill-rule="evenodd"/>
 <path d="m34.343,106.626c.472-1.078.876-4.917 1.482-7.342 .539-2.155 1.347-4.378 2.694-6.399 1.28-2.492 4.917-6.668 5.187-7.341 .135-.741-2.694,1.549-4.108,2.963-1.684,1.212-3.57,2.762-4.849,4.647-1.348,1.886-2.695,3.974-3.032,5.995-.539,1.683-.27,3.233.27,4.647 .269,1.079 1.75,3.572 2.356,2.83z" fill="#f13d2f" fill-rule="evenodd"/>
 <path d="m34.343,89.989c-.337.606-2.829,2.694-3.839,5.186-1.146,2.425-2.021,6.265-2.627,8.892-.741,2.223-.875,5.119-1.212,5.59-.472.472-.741-1.212-1.078-2.492-.538-1.482-1.01-3.772-.673-5.861 .27-2.223 2.358-5.186 3.435-6.802 1.078-1.751 2.021-2.694 3.099-3.369 .942-.807 3.031-1.885 2.895-1.144z" fill="#f13d2f" fill-rule="evenodd"/>
 <path d="m20.4,117c-.673-1.146-2.087-5.052-1.885-7.342 .134-2.559 2.424-6.466 3.233-7.342 .673-.875 1.616-.134 1.55,1.482-.27,1.347-1.954,4.311-2.223,6.534-.202,2.021.201,4.58.403,5.86-.269.942-.539,1.818-1.078.808z" fill="#f13d2f" fill-rule="evenodd"/>
 <path d="m14.406,123.129c.067-1.145-1.279-3.975-1.145-6.399 .201-2.626 1.886-7.207 1.953-8.016-.202-.943-2.29,1.819-2.896,3.099-.673,1.01-1.549,2.291-1.347,4.108-.135,1.819.538,5.388 1.212,6.803 .404,1.213 2.02,1.347 2.223.405z" fill="#f13d2f" fill-rule="evenodd"/>
 <path d="m51.923,85.409c-1.078-.539-1.684-1.684-1.818-3.705-.539-2.021-1.146-5.051 0-8.083 1.145-3.301 5.724-9.901 7.274-10.979 1.348-1.28 1.28,1.482 1.078,3.908-.472,2.289-2.694,7.004-3.032,9.968-.606,2.963 1.348,5.726.674,7.477-.942,1.414-3.03,1.615-4.176,1.414z" fill="#f13d2f" fill-rule="evenodd"/>
 <path d="m62.971,86.217c-.607-1.414-1.078-6.466-1.146-8.891-.336-2.425-.067-4.513.539-6.265 .673-2.088 1.819-4.041 3.705-5.59 1.819-1.617 6.332-4.244 6.804-3.435 .202.673-4.177,4.445-5.322,7.679-1.348,3.166-1.886,7.881-2.155,10.776-.405,2.425-.202,3.975-.405,4.917-.539,1.011-1.483,1.887-2.02.809z" fill="#f13d2f" fill-rule="evenodd"/>
 <path d="m73.006,88.238c-.673-2.021-.809-7.881-.404-11.047 .404-3.3 1.145-5.522 2.493-7.745 1.077-2.358 4.176-5.995 4.917-5.726 .539.202-.741,2.425-1.01,6.399-.472,3.772-.54,12.731-.943,15.964-.405,2.829-.809,2.021-1.482,2.29-1.011.134-2.898,1.818-3.571-.135z" fill="#f13d2f" fill-rule="evenodd"/>
 <path d="m85.332,91.403c-1.145-2.155-1.077-6.265-.605-10.238 .336-3.907 1.684-10.777 3.03-12.798 1.28-2.087 3.908-1.751 4.513,0 .405,1.618-1.549,5.456-1.684,8.959-.27,3.233.067,8.083.269,10.643 .068,2.29.674,3.435 0,3.974-1.144.471-4.445,1.144-5.523-.54z" fill="#f13d2f" fill-rule="evenodd"/>
 <path d="m46.467,85.544c.405-.472-.539-1.28-.269-3.705 .067-2.627 1.819-9.901 1.617-11.72-.337-2.223-2.291-1.751-3.031-.404-.943,1.145-1.886,5.59-2.021,8.15-.404,2.425-.27,5.388.404,6.803 .539,1.279 2.761,1.145 3.3.876z" fill="#f13d2f" fill-rule="evenodd"/>
 <path d="m37.711,87.295c.269-1.078-.876-2.358-.808-4.379-.068-2.425 1.414-7.274 1.077-8.284-.336-.943-2.761,1.212-3.368,2.83-.943,1.481-1.414,4.041-1.414,6.129 0,1.885.336,4.31 1.28,5.186 .741.471 2.694-.539 3.233-1.482z" fill="#f13d2f" fill-rule="evenodd"/>
 <path d="m30.504,91.539c.27-1.415-.876-3.436-.809-5.052 .068-1.751.673-4.513.27-4.917-.808-.404-3.301,1.212-4.109,2.021-.742.471-1.01.269-.808,1.481-.135,1.077-.135,3.772.27,5.456 .404,1.415 1.212,3.435 2.155,3.705 .875,0 2.492-1.416 3.031-2.694z" fill="#f13d2f" fill-rule="evenodd"/>
 <path d="m22.758,100.093c.068-.809-1.01-2.357-1.145-4.108-.135-1.617.741-5.052.538-5.591-.472-.673-1.548.673-2.155,1.415-.606.404-1.145.336-1.078,1.616-.202,1.01.067,4.513.808,5.59 .472,1.145 2.695,1.415 3.032,1.078z" fill="#f13d2f" fill-rule="evenodd"/>
 <path d="m17.706,105.684c.203-.742-.875-1.55-1.145-2.156-.27-.875.201-2.963-.134-2.896-.473,0-2.156,1.481-2.426,2.626-.54.675-.54,1.482-.27,2.426 .067.943.203,2.964.943,3.166 .675-.203 2.56-2.224 3.032-3.166z" fill="#f13d2f" fill-rule="evenodd"/>
 <path d="m95.503,94.367c1.684-.068 3.503.067 5.187.135 1.684-.135 3.57,0 4.917.404 1.01.471.809,1.28 2.223,2.155 1.416.606 3.098,1.078 5.792,1.685-.134-.068.404.066 1.616-.136 1.011-.134 4.918-.875 4.984-.673-.066,0-3.502,1.414-4.849,1.616-1.481.068-3.031-.404-4.377-.673-1.55-.404-3.57-.943-4.514-1.348-1.078-.673-.942-1.482-1.953-1.684-1.146-.27-3.908.337-5.187.27-1.549-.201-2.828-.875-3.839-1.751z" fill="#a52914" fill-rule="evenodd"/>
 <path d="m140.43,101.237c.337-.27 4.312.876 6.198,1.078 1.616,0 2.29-.404 4.107-.404 1.887-.202 4.177-.808 6.332-.539 1.818.202 2.425,1.348 4.917,1.885 2.492.405 9.025.741 9.497,1.011 .135.27-6.197.539-8.352.539-2.224-.404-3.368-1.751-5.254-1.953-2.29-.202-5.726.809-7.948.943-2.29,0-4.042-.134-5.523-.404-1.549-.539-4.512-1.953-3.974-2.156z" fill="#a52914" fill-rule="evenodd"/>
 <path d="m98.938,94.435c-.673-2.021-.807-7.88-.403-11.046 .269-3.301 1.078-5.523 2.424-7.747 1.078-2.357 4.176-5.995 4.917-5.725 .471.202-.539,2.424-.943,6.398-.403,3.772-.741,12.731-1.01,15.964-.403,2.828-.808,2.02-1.481,2.289-.876.136-2.897,1.82-3.504-.133z" fill="#f13d2f" fill-rule="evenodd"/>
 <path d="m115.777,98.409c-1.346-1.953-2.021-5.995-2.021-10.037-.269-3.974.203-10.844 1.146-13.067 .943-2.357 3.636-2.223 4.445-.673 .54,1.28-.539,5.793-.337,9.16 .27,3.368 1.146,7.813 1.818,10.441 .337,2.223 1.213,3.3.54,3.974-1.077.539-4.243,1.818-5.591.202z" fill="#f13d2f" fill-rule="evenodd"/>
 <path d="m134.099,101.642c-1.684-1.751-3.839-6.87-4.917-9.902-1.01-3.165-1.347-5.523-1.01-8.083 .202-2.761 1.28-7.072 2.156-7.206 .471-.203.538,2.559 1.75,6.195 1.213,3.503 4.648,11.856 5.659,14.954 .807,2.762.066,2.088-.405,2.694-.606.607-2.02,2.695-3.233,1.348z" fill="#f13d2f" fill-rule="evenodd"/>
 <path d="m150.735,102.72c-1.145-.809-.067-2.492-1.211-5.052-1.482-2.829-4.985-8.218-6.063-10.71-1.01-2.762-.876-4.378.134-4.849 .674-.674 2.964.066 4.783,1.953 1.886,1.819 4.781,6.87 6.331,9.43 1.28,2.357 1.885,3.974 2.089,5.388 .202,1.348-.27,2.357-1.146,3.031-1.144.741-3.906,1.28-4.917.809z" fill="#f13d2f" fill-rule="evenodd"/>
 <path d="m85.266,116.528c1.077-1.416 4.512-8.354 6.399-11.451 1.751-2.964 3.435-4.445 4.781-5.995 1.212-1.684 4.176-4.176 3.435-4.108-.943-.202-5.658,2.021-7.947,3.839-2.358,1.819-4.917,4.783-6.13,7.073-1.414,2.02-1.818,3.705-1.751,5.59-.27,1.617-.135,6.063 1.213,5.052z" fill="#f13d2f" fill-rule="evenodd"/>
 <path d="m104.192,120.771c1.079-1.751 3.503-8.555 5.726-12.124 2.155-3.57 6.265-7.814 7.14-9.094 .606-1.55-1.211-.472-2.829.674-1.818,1.077-5.523,3.501-7.477,5.724-1.954,2.021-3.705,4.715-4.176,6.804-.539,1.819-.27,3.637.269,4.917 0,1.213.27,4.582 1.347,3.099z" fill="#f13d2f" fill-rule="evenodd"/>
 <path d="m134.301,102.652c-1.684,2.626-7.342,10.373-9.699,14.145-2.291,3.501-3.369,6.802-4.042,7.274-.876.337-.876-3.907-1.079-5.186-.404-1.482-2.222-1.684-1.01-3.705 1.146-2.291 4.782-7.208 7.545-9.564 2.492-2.493 5.792-4.312 7.341-4.715 1.281-.673 2.291-.876.944,1.751z" fill="#f13d2f" fill-rule="evenodd"/>
 <path d="m139.892,124.61c-1.079-.943-1.684-2.829-1.28-5.388 .471-2.493 1.751-6.736 3.301-9.093 1.077-2.56 2.762-5.119 4.041-6.13 1.28-1.212 2.56-.942 3.571-.472 .808.27 1.954-.539 1.347,2.762-1.011,3.166-4.851,13.202-6.602,16.368-1.886,2.964-3.436,2.492-4.378,1.953z" fill="#f13d2f" fill-rule="evenodd"/>
 <path d="m159.088,122.927c-.808-.472-.606-1.751.336-4.109 1.078-2.559 3.502-7.342 5.456-9.901 1.617-2.626 3.233-4.378 4.581-5.253 .404-.674-.067-2.493-1.415-4.917-1.751-2.762-5.726-7.747-7.004-10.307s-1.146-4.849.134-4.513c1.145.471 4.783,3.031 7.543,6.399 2.695,3.099 7.275,8.958 8.286,11.855 .606,2.559-2.223,1.414-3.57,4.108-1.481,2.626-3.098,8.352-4.58,11.72-1.55,3.233-3.234,6.399-4.784,7.409-1.615.742-3.366.001-4.983-2.491z" fill="#f13d2f" fill-rule="evenodd"/>
 <path d="m201.793,125.823c-.809-.336-.809-1.684-.271-4.311 .606-2.762 2.291-8.285 3.771-11.115 1.349-2.964 2.36-5.052 3.774-6.264 .201-.876-.541-2.492-2.226-4.85-2.086-2.492-6.936-7.208-8.552-9.497-1.549-2.627-2.09-4.783-.605-4.648 1.345.136 5.115,2.426 8.484,5.322 3.1,2.694 8.621,8.149 10.104,10.912 1.009,2.56-1.954,1.751-2.897,4.85-1.144,3.031-1.616,9.16-2.693,12.932-1.144,3.57-2.087,7.072-3.57,8.42-1.413,1.078-3.365.405-5.319-1.751z" fill="#f13d2f" fill-rule="evenodd"/>
 <path d="m191.017,105.548c-1.214-.808-.742-2.56-2.223-5.254-1.885-2.762-7.074-8.015-8.556-10.575-1.548-2.694-1.683-4.715-.672-5.322 .672-.807 3.031-.471 5.523,1.28 2.222,1.683 6.465,6.534 8.555,9.094 1.952,2.29 2.693,4.041 3.3,5.522 .402,1.348.066,2.694-.742,3.503-1.144.877-3.907,2.156-5.185,1.752z" fill="#f13d2f" fill-rule="evenodd"/>
 <path d="m179.767,128.113c-1.212-.876-1.751-3.166-1.347-5.792 .336-2.896 2.021-6.938 3.504-9.767 1.345-2.896 2.894-5.388 4.378-6.466 1.549-1.146 2.558-1.078 3.771-.54 .808.27 2.222-.471 1.414,2.964-1.279,3.435-4.918,14.011-7.005,17.446-2.021,3.098-3.772,2.694-4.715,2.155z" fill="#f13d2f" fill-rule="evenodd"/>
 <path d="m222.739,106.559c.07-.403 2.427-1.145 3.705-1.481 1.349-.539 2.563-1.28 4.379-1.414 1.75-.337 3.771-.337 6.063-.27 2.087,0 3.504.471 6.332.134 2.628-.673 7.006-2.56 9.766-2.828 2.827-.337 5.927,1.279 6.197,1.482-.066.066-4.378-1.28-6.465-.674-2.361.606-4.783,3.099-7.275,3.839-2.628.27-5.727-.606-7.747-.808-2.357-.27-2.493-.741-4.78-.134-2.36.404-6.739,3.03-8.42,3.435-1.956.133-2.021-.81-1.755-1.281z" fill="#a52914" fill-rule="evenodd"/>
 <path d="m221.26,126.43c-.809-.337-.943-1.685-.406-4.312 .541-2.83 1.886-8.419 3.234-11.315 1.078-3.032 2.222-5.052 3.436-6.333-.271-1.077-1.079-2.896-2.427-4.714-1.48-2.088-4.379-4.782-5.793-7.072-1.614-2.358-3.972-6.736-2.894-6.871 1.008-.337 5.993,2.492 9.227,5.119 3.03,2.762 7.747,7.544 8.957,10.44 1.013,2.626-2.021,1.751-2.624,4.917-.811,3.031-1.417,9.295-2.09,13.067-1.009,3.705-1.819,7.073-3.164,8.555-1.485,1.077-3.3.673-5.456-1.481z" fill="#e2391c" fill-rule="evenodd"/>
 <path d="m245.71,102.854c-1.282-.607-1.213-2.425-3.435-4.647-2.492-2.492-8.489-7.746-10.44-9.768-1.955-2.29-2.427-2.963-1.147-3.031 1.349-.202 4.718.539 8.019,2.492 3.028,1.953 7.878,6.602 9.898,9.026 1.619,2.021 1.619,3.502 1.078,4.445-.672.742-2.694,2.089-3.973,1.483z" fill="#e2391c" fill-rule="evenodd"/>
 <path d="m242.947,124.745c-.404-.875.606-3.637.673-6.465-.402-3.167-2.287-8.958-2.021-11.114 .135-2.088 1.885-2.358 3.168-1.549 1.346.606 3.5,2.492 4.108,5.658 .27,2.896-1.214,9.7-2.087,12.057-1.147,2.221-3.304,2.087-3.841,1.413z" fill="#e2391c" fill-rule="evenodd"/>
 <path d="m259.718,122.388c-.738-1.482 1.483-6.467 1.483-9.768-.135-3.368-2.021-8.352-1.751-10.036 .066-1.684 1.686-1.819 2.76-.404 1.013,1.145 2.021,4.311 2.763,7.409 .471,2.963 1.348,8.217.541,10.574-.944,2.225-5.12,3.235-5.796,2.225z" fill="#e2391c" fill-rule="evenodd"/>
 <path d="m263.288,103.394c.541-.673 1.754-2.561 1.819-4.379-.135-1.751 1.349-3.771-1.819-6.331-3.501-3.032-14.684-9.295-17.442-10.44-2.763-.943-.405,1.953 1.615,4.243 1.819,2.155 7.879,5.187 10.17,8.016 2.156,2.357 2.087,5.726 3.165,7.274 .81,1.414 1.82,1.952 2.492,1.617z" fill="#e2391c" fill-rule="evenodd"/>
 <path d="m275.482,117.942c-.742-.067-1.147-1.414-1.213-3.772-.136-2.559.336-8.082.873-10.844 .472-2.896 1.012-5.119 1.89-6.398-.476-1.146-1.484-2.425-3.033-3.84-1.819-1.616-4.784-3.569-6.534-5.32-1.815-2.021-4.849-5.12-3.907-5.658 .943-.472 5.862.942 9.297,2.963 3.231,1.954 8.486,5.321 10.035,7.745 1.414,2.021-1.414,1.955-1.479,4.985-.069,2.897.267,8.42.471,12.125-.135,3.368-.271,6.937-1.213,8.353-1.079,1.345-2.898,1.143-5.187-.339z" fill="#cf341a" fill-rule="evenodd"/>
 <path d="m278.848,29.638c.406-.405 3.706.202 5.186,1.279 1.013.808 1.82,3.301 1.685,3.84-.471.403-1.685-.674-2.894-1.415-1.284-1.145-4.178-3.233-3.977-3.704z" fill="#a52914" fill-rule="evenodd"/>
 <path d="m288.887,36.777c1.546.135 3.3.336 4.51.875 1.282.337 2.561,1.011 3.304,1.751 .536.539.672,1.28.134,1.954 1.48-.54 2.625-.27 3.703.539 .942.809 1.549,2.358 2.09,4.647 .737.203 1.75.675 3.029,1.685 1.214,1.009 3.841,3.3 3.977,3.974-.069.269-2.964-.742-4.246-1.483-1.55-.741-2.693-1.751-4.174-3.03-.472-1.212-1.483-2.089-2.292-2.897-1.144-.808-2.087-1.549-3.57-1.954-.404-1.01-1.144-1.886-1.684-2.357-.673-.539-1.414-.471-2.223-.809-.808-.672-1.751-1.548-2.558-2.895z" fill="#a52914" fill-rule="evenodd"/>
 <path d="m301.144,52.741c1.954,0 3.84.269 5.927,1.078 2.091.605 4.583,1.481 6.469,3.166 1.549,1.684 2.828,3.57 3.57,6.466-3.1-1.684-5.862-3.502-8.556-5.186-2.827-1.887-5.054-3.638-7.41-5.524z" fill="#a52914" fill-rule="evenodd"/>
 <path d="m318.59,68.705c.941,1.28 1.954,2.694 3.3,4.244 1.146,1.549 2.627,3.166 4.177,5.119 .606-1.482.404-3.301-.877-4.715-1.211-1.617-3.502-3.167-6.6-4.648z" fill="#a52914" fill-rule="evenodd"/>
 <path d="m316.839,70.186c-.136-2.56-1.078-4.311-3.571-5.995-2.558-1.751-5.927-2.694-10.845-3.569 .941,1.212 2.225,2.626 3.57,3.704 1.213,1.146 3.368,2.156 4.647,3.031 1.013.405 1.886.405 2.898.809 1.079.403 2.088,1.078 3.301,2.02z" fill="#a52914" fill-rule="evenodd"/>
 <path d="m327.55,84.062c-.541-1.146-3.64-4.917-4.919-6.399-1.55-1.617-4.243-3.436-3.705-2.358 .471.943 4.849,6.804 6.398,8.487 1.28,1.28 2.627,1.28 2.226.27z" fill="#a52914" fill-rule="evenodd"/>
 <path d="m315.424,76.248c-.471.27-2.763-2.963-5.591-4.512-2.963-1.886-10.506-4.244-11.72-5.254-1.348-1.145 1.48-1.01 3.301-.674 1.75.203 4.915,1.819 6.87,2.492 1.479.606 2.356-.067 3.436,1.348 1.213,1.347 3.84,6.061 3.704,6.6z" fill="#a52914" fill-rule="evenodd"/>
 <path d="m326.066,97.87c.672,0-1.415-6.938-2.628-9.632-1.479-2.694-4.107-4.581-5.521-5.927-1.619-1.414-2.357-2.155-3.3-2.223-1.013-.202-1.685,1.819-2.291,1.684-.673-.27-.673-1.886-1.55-3.031-1.144-1.482-2.087-3.637-4.919-4.917-3.095-1.415-11.515-3.435-12.798-3.233-1.413.068 2.697,1.28 5.321,3.369 2.492,1.885 8.354,5.792 10.038,7.813 1.279,1.819-1.549,2.357-1.213,3.705 .336,1.078 1.955,2.155 3.57,4.244 1.278,2.223 4.243,6.062 5.255,8.689 .808,2.492.336,6.062.672,5.792 .136-.674 2.087-4.984 1.214-8.285-1.147-3.3-6.133-8.958-6.87-10.979-.877-2.087.942-2.291 2.356-1.684 1.414,0 3.165,1.415 5.522,3.705 2.157,2.356 6.265,10.573 7.142,10.91z" fill="#a52914" fill-rule="evenodd"/>
 <path d="m285.247,77.056c.336-.673 5.39-1.078 8.624.607 3.165,1.481 8.552,5.86 10.17,8.218 1.415,1.953-2.291,2.491-1.75,4.512 .336,1.953 3.096,4.446 4.106,7.477 .742,2.83 1.616,9.632 1.079,9.767-.677-.067-2.829-6.736-4.379-9.094-1.818-2.559-4.177-4.108-4.717-5.658-.537-1.886 3.233-2.828 2.226-4.647-1.214-2.088-6.198-4.849-8.756-6.736-2.763-2.021-6.873-3.839-6.603-4.446z" fill="#c03018" fill-rule="evenodd"/>
 <path d="m274.067,80.357c-.068,1.145 12.122,9.565 14.75,12.259 2.156,2.627-.271,1.683 0,3.165 .336,1.146.742,1.146 1.75,4.379 .877,3.233 2.427,13.74 3.57,14.886 1.078.807 2.427-5.995 2.492-9.229-.336-3.637-3.3-8.419-3.705-10.71-.472-2.356 2.09-1.28 1.483-2.762-.672-1.684-2.087-4.445-5.321-6.465-3.503-2.155-15.087-6.669-15.019-5.523z" fill="#c03018" fill-rule="evenodd"/>
 <path d="m49.095,291.857c-.473.202.269,3.233 1.415,4.715 .875,1.28 3.301,2.359 3.906,2.492 .472-.133.27-2.021-.605-3.097-1.011-1.416-4.312-4.176-4.716-4.11z" fill="#c03018" fill-rule="evenodd"/>
 <path d="m62.431,305.194c-.336.068.808,2.289 1.616,3.031 .606.672 1.415,1.347 1.887,1.279 .404-.403.538-1.414.134-2.222-.875-.809-3.3-2.357-3.637-2.088z" fill="#c03018" fill-rule="evenodd"/>
 <path d="m75.97,317.521c-.269-1.011-.337-1.817-.471-2.694-.135-.943-.135-1.684 0-2.491l-3.435-.809c.605,1.752 1.28,3.031 2.021,4.108 .672,1.011 1.211,1.55 1.885,1.886z" fill="#c03018" fill-rule="evenodd"/>
 <path d="m84.188,322.034c-.27-.943-.337-1.818-.471-2.628-.135-1.01-.135-1.617 0-2.56l-3.502-.74c.605,1.683 1.28,3.031 2.021,4.042s1.143,1.55 1.952,1.886z" fill="#c03018" fill-rule="evenodd"/>
 <path d="m94.493,328.5c-.27-1.414-.673-2.627-.673-3.906-.134-1.281-.134-2.627 0-3.772l-3.975-.809c.472,2.29 1.01,4.378 1.886,5.725 .674,1.481 1.685,2.223 2.762,2.762z" fill="#c03018" fill-rule="evenodd"/>
 <path d="m105.337,332.406c-.404-1.549-.673-3.167-.807-4.58-.135-1.55-.135-2.896 0-4.311l-4.649-1.011c.473,2.762 1.213,4.984 2.224,6.67 .807,1.615 1.886,2.694 3.232,3.232z" fill="#c03018" fill-rule="evenodd"/>
 <path d="m116.182,335.303c-1.415-.201-2.426-.808-3.57-2.357-1.212-1.752-3.232-6.13-2.964-6.669 .203-.539 2.493,1.819 3.974,3.436 1.079,1.348 2.83,3.908 3.435,4.851 .54.74.54.74 0,0 1.079.605 2.155,1.278 2.964,2.021 .673.605 2.357,1.414 2.222,1.887-.27.336-2.356.942-3.367.538-.942-.473-2.02-1.89-2.694-3.707z" fill="#c03018" fill-rule="evenodd"/>
 <path d="m130.058,338.603c-1.617-.065-3.167-1.008-4.379-2.828-1.616-1.954-3.569-7.61-3.502-8.149 .27-.675 3.167,2.289 4.782,4.243 1.415,1.616 3.301,4.781 4.11,5.859 .673.942.673.942 0,0 1.346.875 2.559,1.414 3.637,2.356 1.145.742 2.627,1.686 2.627,2.292-.472.606-2.763,1.01-4.042.672-1.213-.739-2.29-2.222-3.233-4.445z" fill="#c03018" fill-rule="evenodd"/>
 <path d="m143.865,338.67c-2.088.675-3.973-.2-6.196-2.625-2.425-2.493-6.87-11.384-6.803-12.126 .135-.875 4.984,4.445 7.544,6.87 2.357,2.225 5.254,5.256 6.601,6.535 1.079,1.077 1.079,1.077 0,0 2.021.673 3.503,1.414 5.187,2.223 1.481.673 3.907,1.548 3.907,2.357-.204.74-3.436,2.021-4.985,1.75-1.82-.672-3.571-2.153-5.255-4.984z" fill="#c03018" fill-rule="evenodd"/>
 <path d="m150.668,333.214c-3.435-1.144-5.658-2.693-7.207-5.185-1.617-2.695-2.29-8.623-1.751-9.431 .404-.81 3.3,2.223 5.052,4.714 1.617,2.425 3.435,5.256 5.186,9.297 7.813,2.693 11.855,4.511 12.865,5.456 .741.673-5.456.336-7.679,0-2.222-.271-4.715-.877-5.657-1.55-1.145-.741-1.414-2.02-.809-3.301z" fill="#c03018" fill-rule="evenodd"/>
 <path d="m162.927,327.086 1.415-1.886c-1.683-1.077-2.963-2.358-4.377-4.581-1.617-2.223-2.628-7.679-3.773-8.284-1.078-.877-2.425,2.154-2.492,3.906-.27,1.616.201,3.637 1.414,5.793 1.213,2.089 3.1,4.109 5.928,6.33-1.28,1.214-1.617,2.156-.742,3.1 .606.74 2.493,1.683 5.659,2.088 2.963.337 7.207.473 12.73.134-4.514-1.011-8.083-1.817-10.71-2.963s-4.31-2.359-5.052-3.637z" fill="#c03018" fill-rule="evenodd"/>
 <path d="m178.15,321.226 1.685-1.819c-1.685-1.212-3.099-2.896-4.244-5.321-1.212-2.559-2.358-8.283-3.165-9.16-1.146-.943-2.762,2.088-3.031,3.908-.539,1.547-.135,3.906.942,6.264 1.01,2.156 2.896,4.579 5.658,7.272-1.55,1.146-2.021,2.225-1.145,3.235 .673.808 2.425,2.087 5.792,2.76 3.167.606 7.681,1.079 13.539,1.415-4.849-1.481-8.284-2.896-11.047-4.243-2.828-1.348-4.243-3.032-4.984-4.311z" fill="#c03018" fill-rule="evenodd"/>
 <path d="m191.151,314.489 1.414-2.088c-1.75-.875-3.3-2.425-4.918-4.647-1.615-2.291-3.435-8.016-4.443-8.622-1.348-.739-2.426,2.425-2.493,4.311-.27,1.752.336,3.772 1.817,6.063 1.413,2.021 3.569,4.244 6.738,6.398-1.282,1.281-1.684,2.493-.675,3.368 .742.809 2.762,1.616 6.062,1.888 3.235.066 7.748.133 13.54-.54-4.784-.674-8.69-1.616-11.449-2.56-2.834-1.011-4.786-2.289-5.593-3.571z" fill="#c03018" fill-rule="evenodd"/>
 <path d="m203.813,305.396c.808,1.281 4.313.406 5.05-2.087 .541-2.896-.942-9.834-1.614-12.731-.878-2.761-2.965-4.04-3.436-3.3-.606.606-.673,3.839-.471,7.073-.201,2.962-.405,9.429.471,11.045z" fill="#c03018" fill-rule="evenodd"/>
 <path d="m206.17,307.754c.136.404 0,.673-.672,1.55-.741.673-2.021,1.615-3.57,2.829 1.213,1.01 3.099,1.952 5.656,2.56 2.292.538 6.535,1.414 9.093,1.078 2.562-.472 4.381-1.349 5.997-3.167-3.1.675-5.793.404-8.621-.269-2.763-.944-5.39-2.291-7.883-4.581z" fill="#c03018" fill-rule="evenodd"/>
 <path d="m230.688,295.293c.205.337.676-.067 1.414-.942 .676-1.011 1.619-2.764 2.832-4.984 .673-.875 1.48-1.415 2.693-1.886 1.144-.607 2.964-.607 4.378-.81 1.145-.404 2.357.202 3.636-.809 1.148-1.077 1.886-4.916 3.772-5.791 1.684-1.146 4.446-.811 6.737-.811 2.423-.2 4.58.068 6.466-.471 1.414-.875 1.549-2.56 2.491-3.771 .809-1.482 1.349-2.965 3.165-3.639 1.685-.606 4.514,0 6.94-.269 2.221-.338 4.377-1.213 6.464-2.088-3.771,1.616-6.33,2.896-8.486,3.839-1.954.809-3.098.471-3.976,1.549-1.278.942-.335,3.099-3.164,4.378-3.165,1.213-10.912,1.213-14.146,2.831-3.23,1.278-2.558,4.445-4.984,5.859-2.759,1.144-7.813,1.144-9.969,2.356-2.087,1.011-1.345,3.704-2.152,4.714-.878.877-2.628.675-3.169.945-.672.069-1.077.003-.942-.2z" fill="#a52914" fill-rule="evenodd"/>
 <path d="m233.987,288.691c.812,1.214 4.313.539 5.054-2.021 .537-2.693-.943-9.97-1.614-12.73-.877-2.761-2.968-4.041-3.439-3.3-.604.604-.673,3.839-.471,7.072-.203,3.031-.403,9.297.47,10.979z" fill="#c03018" fill-rule="evenodd"/>
 <path d="m236.684,290.916c.337.606.136,1.144-.336,1.885-.54.606-1.618,1.279-2.964,2.021 1.751.54 3.567,1.212 5.724,2.021 2.021.808 4.446,2.357 6.533,2.56 1.82-.202 3.505-1.01 5.054-2.964-.54-.202-1.954-.741-4.245-1.617-2.359-1.01-5.523-2.223-9.766-3.906z" fill="#c03018" fill-rule="evenodd"/>
 <path d="m227.051,297.044c.202-.605-3.975-.741-4.983-.134-1.214.472-1.01,1.751-2.222,3.097-1.686,1.146-6.265,3.031-6.735,3.841-.541.54 2.492.875 3.906.269 1.078-.942 2.287-2.964 3.906-4.242 1.681-1.214 5.793-2.426 6.128-2.831z" fill="#a52914" fill-rule="evenodd"/>
 <path d="m217.824,297.853c.942,1.279 4.177.404 4.985-2.088 .471-2.896-.742-9.834-1.55-12.729-.877-2.764-2.964-4.043-3.436-3.302-.606.606-.677,3.84-.472,7.072-.204,2.964-.404,9.43.473,11.047z" fill="#c03018" fill-rule="evenodd"/>
 <path d="m220.181,300.21c.136.403 0,.674-.672,1.549-.742.673-2.021,1.618-3.569,2.829 1.208,1.01 3.098,1.953 5.656,2.56 2.291.54 6.534,1.415 9.092,1.078 2.562-.472 4.378-1.347 5.996-3.167-3.233.675-5.86.404-8.689-.269-2.764-.942-5.457-2.29-7.814-4.58z" fill="#c03018" fill-rule="evenodd"/>
 <path d="m250.49,279.936c-.873-.741-.942-3.3-.942-6.13 0-2.896-.402-8.081.336-10.103 .406-2.155 1.955-3.031 2.832-1.886 .738,1.009 1.951,5.859 2.357,8.353 .2,2.425.135,4.646-.472,6.397-.876,1.617-3.369,3.704-4.111,3.369z" fill="#a52914" fill-rule="evenodd"/>
 <path d="m249.884,282.428c1.213-.067 2.897,1.146 5.324,2.357 2.357.943 7.608,2.763 8.485,3.906 .472.943-2.558,3.1-5.186,2.56-2.762-.739-9.497-4.109-10.846-5.658-1.614-1.615.943-3.03 2.223-3.165z" fill="#a52914" fill-rule="evenodd"/>
 <path d="m266.993,273.806c-.742-1.55-.942-7.41-.606-10.574 .136-3.302 1.685-8.622 2.563-8.958 .873-.539 2.422,3.771 2.828,6.734 .065,2.964-.406,8.487-1.147,10.845-1.076,2.156-2.897,3.167-3.638,1.953z" fill="#a52914" fill-rule="evenodd"/>
 <path d="m263.693,278.992c3.1,1.55 6.197,2.829 9.026,3.57 2.964.809 7.141,1.077 8.149.809 .672-.742-1.479-3.1-3.636-4.243-2.292-1.213-5.727-2.156-10.039-2.83-.738,1.011-1.278,1.753-1.885,2.224-.606.335-1.143.672-1.615.47z" fill="#a52914" fill-rule="evenodd"/>
 <path d="m279.59,269.227c2.156-2.224 3.637-5.322 4.443-9.297 .743-4.311-.672-12.326.136-14.951 .676-2.628 3.3-1.82 4.247-.136 .807,1.684 1.074,6.331.807,10.035-.54,3.369-1.549,7.072-3.3,10.847 3.23,2.086 5.521,4.039 6.87,6.128 1.279,2.021 1.681,4.849.943,5.86-1.079.673-4.447.202-6.739-1.146-2.492-1.481-4.78-3.839-7.407-7.34z" fill="#a52914" fill-rule="evenodd"/>
 <path d="m290.433,263.5c1.618.472 3.168.136 4.381-1.279 1.144-1.414 1.952-3.368 2.964-6.937 .943-3.774 1.48-12.395 2.693-15.226 1.009-2.963 2.763-3.567 3.436-2.086 .537,1.348-.069,7.006 0,9.97-.069,2.829-1.013,5.05-.742,6.398 .069,1.212.472,1.347 1.213.672-.877.271-1.684,1.146-2.156,1.886-.606.606-1.414,2.156-1.144,3.1 .202,1.146 1.48,1.346 2.559,3.166 .877,1.481 3.033,4.378 2.828,6.129-.401,1.55-3.636,3.772-5.05,3.302-1.615-.811-3.1-5.727-4.714-7.209-2.022-1.549-3.842-2.088-6.268-1.886z" fill="#a52914" fill-rule="evenodd"/>
 <path d="m306.128,255.619c.942.337 2.09.269 3.165-.941 1.077-1.279 2.561-2.09 3.64-5.793 .808-4.108.471-14.214 1.549-17.042 .942-2.627 3.436-1.886 4.108.675 .54,2.356-.743,9.969-.943,12.997-.472,2.628-1.686,2.628-1.279,3.37 .271.539 2.356,1.076 3.637.604s2.763-1.817 3.906-3.771c.877-2.289 1.147-5.32 1.886-8.823 .675-3.838 1.549-11.519 2.357-12.394 .606-.674 2.225,5.118 2.225,8.017-.271,2.76-2.762,6.937-2.562,8.62 .204,1.55 1.619,1.617 3.977.472-2.092.674-3.169,1.213-3.977,2.358-.606.875-.606,1.75-.267,3.636 .066,1.686 1.414,4.649.943,7.074-.542,2.221-1.956,4.175-4.247,6.129 .271-3.099.135-5.456-.942-7.072-1.145-1.819-4.174-2.963-5.187-2.695-1.144.202-.404,1.616-.672,3.974-.135,2.224-.541,7.276-.942,9.431-.742,1.886-1.686,2.763-3.1,2.356 .606-2.828.742-5.118.136-6.6-.742-1.617-2.292-2.156-3.64-2.695-1.48-.739-3.973-1.211-4.579-1.414-.673-.404-.406-.473.808-.473z" fill="#910000" fill-rule="evenodd"/>
 <path d="m332.399,239.858c.873-.404 1.681-1.752 2.693-4.042 .741-2.628 2.155-7.206 2.964-10.104 .671-3.164 1.213-6.733 1.885-7.341 .606-.471 1.75.943 1.615,4.512-.336,3.435-1.55,8.555-3.636,15.898 1.279-.204 2.492-1.012 3.636-2.695 1.078-1.684 2.357-4.041 3.304-7.071 .603-3.099 1.074-9.902 1.681-11.316 .676-1.617 1.82.605 2.356,2.222 .406,1.685.473,4.446.206,7.208-.473,2.49-1.414,5.321-2.829,8.217 .673,2.356.673,4.85.267,7.206-.537,2.358-2.693,6.534-3.099,6.805-.673-.067.877-4.446.472-6.131-.673-1.75-1.345-3.637-2.558-3.838-1.214-.606-3.166-.136-3.772,1.414-.808,1.616.606,4.781-.135,7.409-.877,2.289-2.356,4.242-4.715,6.13 1.752-2.292 2.358-4.445 2.358-6.737-.337-2.492-2.563-5.456-3.033-6.802-.538-1.281-.336-1.686.34-.944z" fill="#910000" fill-rule="evenodd"/>
</svg>
